# xmcd
#
# Track frame offsets:
#	150
#	15059
#	27614
#	46369
#	62433
#	79516
#	92615
#	106344
#	123678
#	139691
#
# Disc length: 2232 seconds
#
# Revision: 0
# Processed by: cddbd v1.4PL0 Copyright (c) Steve Scherf et al.
# Submitted via: dBpowerAMP V4.0
#
DISCID=7408b60a
DTITLE=Will Taylor and Lesley Hill - Whoofrog
DYEAR=1999
DGENRE=Country
TTITLE0=Really turns me on
TTITLE1=Multi media man
TTITLE2=Rocky mountain pie
TTITLE3=Guaranteed not to hurt a fly
TTITLE4=Cyclone Alby
TTITLE5=Cheryl
TTITLE6=Ferris wheel
TTITLE7=River Lady
TTITLE8=I wont let go
TTITLE9=Black string tie
EXTD=
EXTT0=
EXTT1=
EXTT2=
EXTT3=
EXTT4=
EXTT5=
EXTT6=
EXTT7=
EXTT8=
EXTT9=
PLAYORDER=
